# xmcd
#
# Track frame offsets:
#	150
#	9990
#	21061
#	32897
#	50528
#	65255
#	82106
#	102907
#	115166
#	129997
#	143292
#	151535
#	163115
#	177297
#	192445
#	210228
#	225401
#
# Disc length: 3183 seconds
#
# Revision: 1
# Processed by: cddbd v1.5.1PL2 Copyright (c) Steve Scherf et al.
# Submitted via: audiograbber 1.80
#
DISCID=ca0c6d11
DTITLE=Johnny Cash - Ring of Fire
DYEAR=1900
DGENRE=
TTITLE0=I won't back down
TTITLE1=Solitary Man
TTITLE2=That Lucky old Sun (Just Rolls...)
TTITLE3=One
TTITLE4=Nobody
TTITLE5=I See a Darkness
TTITLE6=The Mercy Seat
TTITLE7=Would You lay with me
TTITLE8=Field of Diamonds
TTITLE9=Before my Time
TTITLE10=Country Trash
TTITLE11=Mary of the wild Moor
TTITLE12=I'm leavin' now
TTITLE13=Wayfaring Stranger
TTITLE14=Bridge over troubled Waters
TTITLE15=Personal Jesus
TTITLE16=In my Life
EXTD=
EXTT0=
EXTT1=
EXTT2=
EXTT3=
EXTT4=
EXTT5=
EXTT6=
EXTT7=
EXTT8=
EXTT9=
EXTT10=
EXTT11=
EXTT12=
EXTT13=
EXTT14=
EXTT15=
EXTT16=
PLAYORDER=
